M48
; DRILL file {KiCad 5.99.0-unknown-c7daca1~100~ubuntu19.10.1} date Wed Mar 25 16:31:24 2020
; FORMAT={-:-/ absolute / inch / decimal}
; #@! TF.CreationDate,2020-03-25T16:31:24+01:00
; #@! TF.GenerationSoftware,Kicad,Pcbnew,5.99.0-unknown-c7daca1~100~ubuntu19.10.1
; #@! TF.FileFunction,Plated,1,2,PTH
FMAT,2
INCH
T1C0.0079
T2C0.0118
T3C0.0394
T4C0.1260
%
G90
G05
T1
X4.3004Y-3.8156
X4.3307Y-3.8156
X4.361Y-3.8156
X2.7256Y-3.8156
X2.7559Y-3.8156
X2.7862Y-3.8156
X5.0878Y-3.8156
X5.1181Y-3.8156
X5.1484Y-3.8156
X4.3004Y-4.0124
X4.3307Y-4.0124
X4.361Y-4.0124
X2.7256Y-4.0124
X2.7559Y-4.0124
X2.7862Y-4.0124
X3.513Y-4.0124
X3.5433Y-4.0124
X3.5736Y-4.0124
X3.513Y-3.8156
X3.5433Y-3.8156
X3.5736Y-3.8156
X5.0878Y-4.0124
X5.1181Y-4.0124
X5.1484Y-4.0124
T2
X2.7242Y-3.901
X2.753Y-3.9138
X2.8332Y-3.9243
X2.8898Y-4.0276
X2.9139Y-3.846
X2.9567Y-4.063
X2.9606Y-4.0079
X2.9803Y-4.0315
X3.315Y-4.0551
X3.3152Y-4.0256
X3.374Y-3.8465
X3.4213Y-3.9055
X3.4409Y-3.811
X3.4556Y-3.8961
X3.4781Y-3.8712
X3.622Y-3.8268
X4.1535Y-3.9843
X4.2677Y-3.937
X4.3898Y-3.7835
X4.4094Y-4.0472
X4.4252Y-3.8573
X4.4331Y-4.0669
X4.4803Y-3.8937
X4.4921Y-3.8425
X4.5079Y-3.9213
X4.8898Y-4.0315
X4.8929Y-4.0609
X4.9252Y-4.0236
X4.9449Y-3.8494
X4.9724Y-4.0236
X5.0158Y-3.8494
X5.0354Y-3.9252
X5.1339Y-3.9291
X5.1496Y-3.9016
X4.6732Y-3.8346
X4.6732Y-3.8858
X4.6732Y-3.937
X4.6732Y-3.9882
X4.6732Y-4.0394
X4.7244Y-3.8346
X4.7244Y-3.8858
X4.7244Y-3.937
X4.7244Y-3.9882
X4.7244Y-4.0394
X4.7756Y-3.8346
X4.7756Y-3.8858
X4.7756Y-3.937
X4.7756Y-3.9882
X4.7756Y-4.0394
X3.0984Y-3.8346
X3.0984Y-3.8858
X3.0984Y-3.937
X3.0984Y-3.9882
X3.0984Y-4.0394
X3.1496Y-3.8346
X3.1496Y-3.8858
X3.1496Y-3.937
X3.1496Y-3.9882
X3.1496Y-4.0394
X3.2008Y-3.8346
X3.2008Y-3.8858
X3.2008Y-3.937
X3.2008Y-3.9882
X3.2008Y-4.0394
T3
X3.912Y-3.837
X4.012Y-3.837
X4.112Y-3.837
X4.212Y-3.837
X4.112Y-4.037
X4.212Y-4.037
X3.912Y-3.937
X4.012Y-3.937
X4.112Y-3.937
X4.212Y-3.937
T4
X3.7402Y-3.937
T0
M30
