%TF.GenerationSoftware,KiCad,Pcbnew,5.99.0-unknown-4d9d1a5~100~ubuntu19.10.1*%
%TF.CreationDate,2020-03-24T19:27:40+01:00*%
%TF.ProjectId,LEDBoard_4x2_p20x5,4c454442-6f61-4726-945f-3478325f7032,v1.0.0*%
%TF.SameCoordinates,Original*%
%TF.FileFunction,Legend,Bot*%
%TF.FilePolarity,Positive*%
%FSLAX46Y46*%
G04 Gerber Fmt 4.6, Leading zero omitted, Abs format (unit mm)*
G04 Created by KiCad (PCBNEW 5.99.0-unknown-4d9d1a5~100~ubuntu19.10.1) date 2020-03-24 19:27:40*
%MOMM*%
%LPD*%
G01*
G04 APERTURE LIST*
%ADD10C,0.100000*%
G04 APERTURE END LIST*
D10*
X99788095Y-102126190D02*
X99788095Y-101626190D01*
X99788095Y-102102380D02*
X99835714Y-102126190D01*
X99930952Y-102126190D01*
X99978571Y-102102380D01*
X100002380Y-102078571D01*
X100026190Y-102030952D01*
X100026190Y-101888095D01*
X100002380Y-101840476D01*
X99978571Y-101816666D01*
X99930952Y-101792857D01*
X99835714Y-101792857D01*
X99788095Y-101816666D01*
X99335714Y-102126190D02*
X99335714Y-101864285D01*
X99359523Y-101816666D01*
X99407142Y-101792857D01*
X99502380Y-101792857D01*
X99550000Y-101816666D01*
X99335714Y-102102380D02*
X99383333Y-102126190D01*
X99502380Y-102126190D01*
X99550000Y-102102380D01*
X99573809Y-102054761D01*
X99573809Y-102007142D01*
X99550000Y-101959523D01*
X99502380Y-101935714D01*
X99383333Y-101935714D01*
X99335714Y-101911904D01*
X99169047Y-101792857D02*
X98978571Y-101792857D01*
X99097619Y-101626190D02*
X99097619Y-102054761D01*
X99073809Y-102102380D01*
X99026190Y-102126190D01*
X98978571Y-102126190D01*
X98597619Y-102126190D02*
X98597619Y-101864285D01*
X98621428Y-101816666D01*
X98669047Y-101792857D01*
X98764285Y-101792857D01*
X98811904Y-101816666D01*
X98597619Y-102102380D02*
X98645238Y-102126190D01*
X98764285Y-102126190D01*
X98811904Y-102102380D01*
X98835714Y-102054761D01*
X98835714Y-102007142D01*
X98811904Y-101959523D01*
X98764285Y-101935714D01*
X98645238Y-101935714D01*
X98597619Y-101911904D01*
X102354761Y-102102380D02*
X102402380Y-102126190D01*
X102497619Y-102126190D01*
X102545238Y-102102380D01*
X102569047Y-102078571D01*
X102592857Y-102030952D01*
X102592857Y-101888095D01*
X102569047Y-101840476D01*
X102545238Y-101816666D01*
X102497619Y-101792857D01*
X102402380Y-101792857D01*
X102354761Y-101816666D01*
X102069047Y-102126190D02*
X102116666Y-102102380D01*
X102140476Y-102054761D01*
X102140476Y-101626190D01*
X101807142Y-102126190D02*
X101854761Y-102102380D01*
X101878571Y-102078571D01*
X101902380Y-102030952D01*
X101902380Y-101888095D01*
X101878571Y-101840476D01*
X101854761Y-101816666D01*
X101807142Y-101792857D01*
X101735714Y-101792857D01*
X101688095Y-101816666D01*
X101664285Y-101840476D01*
X101640476Y-101888095D01*
X101640476Y-102030952D01*
X101664285Y-102078571D01*
X101688095Y-102102380D01*
X101735714Y-102126190D01*
X101807142Y-102126190D01*
X101211904Y-102102380D02*
X101259523Y-102126190D01*
X101354761Y-102126190D01*
X101402380Y-102102380D01*
X101426190Y-102078571D01*
X101450000Y-102030952D01*
X101450000Y-101888095D01*
X101426190Y-101840476D01*
X101402380Y-101816666D01*
X101354761Y-101792857D01*
X101259523Y-101792857D01*
X101211904Y-101816666D01*
X100997619Y-102126190D02*
X100997619Y-101626190D01*
X100950000Y-101935714D02*
X100807142Y-102126190D01*
X100807142Y-101792857D02*
X100997619Y-101983333D01*
X97938095Y-95826190D02*
X97628571Y-95826190D01*
X97795238Y-96016666D01*
X97723809Y-96016666D01*
X97676190Y-96040476D01*
X97652380Y-96064285D01*
X97628571Y-96111904D01*
X97628571Y-96230952D01*
X97652380Y-96278571D01*
X97676190Y-96302380D01*
X97723809Y-96326190D01*
X97866666Y-96326190D01*
X97914285Y-96302380D01*
X97938095Y-96278571D01*
X97414285Y-96278571D02*
X97390476Y-96302380D01*
X97414285Y-96326190D01*
X97438095Y-96302380D01*
X97414285Y-96278571D01*
X97414285Y-96326190D01*
X97223809Y-95826190D02*
X96914285Y-95826190D01*
X97080952Y-96016666D01*
X97009523Y-96016666D01*
X96961904Y-96040476D01*
X96938095Y-96064285D01*
X96914285Y-96111904D01*
X96914285Y-96230952D01*
X96938095Y-96278571D01*
X96961904Y-96302380D01*
X97009523Y-96326190D01*
X97152380Y-96326190D01*
X97200000Y-96302380D01*
X97223809Y-96278571D01*
X96771428Y-95826190D02*
X96604761Y-96326190D01*
X96438095Y-95826190D01*
X107566666Y-95626190D02*
X107400000Y-96126190D01*
X107233333Y-95626190D01*
X106780952Y-96078571D02*
X106804761Y-96102380D01*
X106876190Y-96126190D01*
X106923809Y-96126190D01*
X106995238Y-96102380D01*
X107042857Y-96054761D01*
X107066666Y-96007142D01*
X107090476Y-95911904D01*
X107090476Y-95840476D01*
X107066666Y-95745238D01*
X107042857Y-95697619D01*
X106995238Y-95650000D01*
X106923809Y-95626190D01*
X106876190Y-95626190D01*
X106804761Y-95650000D01*
X106780952Y-95673809D01*
X106280952Y-96078571D02*
X106304761Y-96102380D01*
X106376190Y-96126190D01*
X106423809Y-96126190D01*
X106495238Y-96102380D01*
X106542857Y-96054761D01*
X106566666Y-96007142D01*
X106590476Y-95911904D01*
X106590476Y-95840476D01*
X106566666Y-95745238D01*
X106542857Y-95697619D01*
X106495238Y-95650000D01*
X106423809Y-95626190D01*
X106376190Y-95626190D01*
X106304761Y-95650000D01*
X106280952Y-95673809D01*
X104780952Y-95650000D02*
X104828571Y-95626190D01*
X104900000Y-95626190D01*
X104971428Y-95650000D01*
X105019047Y-95697619D01*
X105042857Y-95745238D01*
X105066666Y-95840476D01*
X105066666Y-95911904D01*
X105042857Y-96007142D01*
X105019047Y-96054761D01*
X104971428Y-96102380D01*
X104900000Y-96126190D01*
X104852380Y-96126190D01*
X104780952Y-96102380D01*
X104757142Y-96078571D01*
X104757142Y-95911904D01*
X104852380Y-95911904D01*
X104542857Y-96126190D02*
X104542857Y-95626190D01*
X104257142Y-96126190D01*
X104257142Y-95626190D01*
X104019047Y-96126190D02*
X104019047Y-95626190D01*
X103900000Y-95626190D01*
X103828571Y-95650000D01*
X103780952Y-95697619D01*
X103757142Y-95745238D01*
X103733333Y-95840476D01*
X103733333Y-95911904D01*
X103757142Y-96007142D01*
X103780952Y-96054761D01*
X103828571Y-96102380D01*
X103900000Y-96126190D01*
X104019047Y-96126190D01*
X102354761Y-96102380D02*
X102402380Y-96126190D01*
X102497619Y-96126190D01*
X102545238Y-96102380D01*
X102569047Y-96078571D01*
X102592857Y-96030952D01*
X102592857Y-95888095D01*
X102569047Y-95840476D01*
X102545238Y-95816666D01*
X102497619Y-95792857D01*
X102402380Y-95792857D01*
X102354761Y-95816666D01*
X102069047Y-96126190D02*
X102116666Y-96102380D01*
X102140476Y-96054761D01*
X102140476Y-95626190D01*
X101807142Y-96126190D02*
X101854761Y-96102380D01*
X101878571Y-96078571D01*
X101902380Y-96030952D01*
X101902380Y-95888095D01*
X101878571Y-95840476D01*
X101854761Y-95816666D01*
X101807142Y-95792857D01*
X101735714Y-95792857D01*
X101688095Y-95816666D01*
X101664285Y-95840476D01*
X101640476Y-95888095D01*
X101640476Y-96030952D01*
X101664285Y-96078571D01*
X101688095Y-96102380D01*
X101735714Y-96126190D01*
X101807142Y-96126190D01*
X101211904Y-96102380D02*
X101259523Y-96126190D01*
X101354761Y-96126190D01*
X101402380Y-96102380D01*
X101426190Y-96078571D01*
X101450000Y-96030952D01*
X101450000Y-95888095D01*
X101426190Y-95840476D01*
X101402380Y-95816666D01*
X101354761Y-95792857D01*
X101259523Y-95792857D01*
X101211904Y-95816666D01*
X100997619Y-96126190D02*
X100997619Y-95626190D01*
X100950000Y-95935714D02*
X100807142Y-96126190D01*
X100807142Y-95792857D02*
X100997619Y-95983333D01*
X99788095Y-96126190D02*
X99788095Y-95626190D01*
X99788095Y-96102380D02*
X99835714Y-96126190D01*
X99930952Y-96126190D01*
X99978571Y-96102380D01*
X100002380Y-96078571D01*
X100026190Y-96030952D01*
X100026190Y-95888095D01*
X100002380Y-95840476D01*
X99978571Y-95816666D01*
X99930952Y-95792857D01*
X99835714Y-95792857D01*
X99788095Y-95816666D01*
X99335714Y-96126190D02*
X99335714Y-95864285D01*
X99359523Y-95816666D01*
X99407142Y-95792857D01*
X99502380Y-95792857D01*
X99550000Y-95816666D01*
X99335714Y-96102380D02*
X99383333Y-96126190D01*
X99502380Y-96126190D01*
X99550000Y-96102380D01*
X99573809Y-96054761D01*
X99573809Y-96007142D01*
X99550000Y-95959523D01*
X99502380Y-95935714D01*
X99383333Y-95935714D01*
X99335714Y-95911904D01*
X99169047Y-95792857D02*
X98978571Y-95792857D01*
X99097619Y-95626190D02*
X99097619Y-96054761D01*
X99073809Y-96102380D01*
X99026190Y-96126190D01*
X98978571Y-96126190D01*
X98597619Y-96126190D02*
X98597619Y-95864285D01*
X98621428Y-95816666D01*
X98669047Y-95792857D01*
X98764285Y-95792857D01*
X98811904Y-95816666D01*
X98597619Y-96102380D02*
X98645238Y-96126190D01*
X98764285Y-96126190D01*
X98811904Y-96102380D01*
X98835714Y-96054761D01*
X98835714Y-96007142D01*
X98811904Y-95959523D01*
X98764285Y-95935714D01*
X98645238Y-95935714D01*
X98597619Y-95911904D01*
X97726190Y-97426190D02*
X97726190Y-97092857D01*
X97726190Y-96926190D02*
X97750000Y-96950000D01*
X97726190Y-96973809D01*
X97702380Y-96950000D01*
X97726190Y-96926190D01*
X97726190Y-96973809D01*
X97488095Y-97092857D02*
X97488095Y-97426190D01*
X97488095Y-97140476D02*
X97464285Y-97116666D01*
X97416666Y-97092857D01*
X97345238Y-97092857D01*
X97297619Y-97116666D01*
X97273809Y-97164285D01*
X97273809Y-97426190D01*
X98204761Y-102526190D02*
X98252380Y-102502380D01*
X98276190Y-102478571D01*
X98300000Y-102430952D01*
X98300000Y-102288095D01*
X98276190Y-102240476D01*
X98252380Y-102216666D01*
X98204761Y-102192857D01*
X98133333Y-102192857D01*
X98085714Y-102216666D01*
X98061904Y-102240476D01*
X98038095Y-102288095D01*
X98038095Y-102430952D01*
X98061904Y-102478571D01*
X98085714Y-102502380D01*
X98133333Y-102526190D01*
X98204761Y-102526190D01*
X97609523Y-102192857D02*
X97609523Y-102526190D01*
X97823809Y-102192857D02*
X97823809Y-102454761D01*
X97800000Y-102502380D01*
X97752380Y-102526190D01*
X97680952Y-102526190D01*
X97633333Y-102502380D01*
X97609523Y-102478571D01*
X97442857Y-102192857D02*
X97252380Y-102192857D01*
X97371428Y-102026190D02*
X97371428Y-102454761D01*
X97347619Y-102502380D01*
X97300000Y-102526190D01*
X97252380Y-102526190D01*
X109035714Y-103826190D02*
X108869047Y-104326190D01*
X108702380Y-103826190D01*
X108250000Y-104278571D02*
X108273809Y-104302380D01*
X108345238Y-104326190D01*
X108392857Y-104326190D01*
X108464285Y-104302380D01*
X108511904Y-104254761D01*
X108535714Y-104207142D01*
X108559523Y-104111904D01*
X108559523Y-104040476D01*
X108535714Y-103945238D01*
X108511904Y-103897619D01*
X108464285Y-103850000D01*
X108392857Y-103826190D01*
X108345238Y-103826190D01*
X108273809Y-103850000D01*
X108250000Y-103873809D01*
X107750000Y-104278571D02*
X107773809Y-104302380D01*
X107845238Y-104326190D01*
X107892857Y-104326190D01*
X107964285Y-104302380D01*
X108011904Y-104254761D01*
X108035714Y-104207142D01*
X108059523Y-104111904D01*
X108059523Y-104040476D01*
X108035714Y-103945238D01*
X108011904Y-103897619D01*
X107964285Y-103850000D01*
X107892857Y-103826190D01*
X107845238Y-103826190D01*
X107773809Y-103850000D01*
X107750000Y-103873809D01*
X107654761Y-104373809D02*
X107273809Y-104373809D01*
X106916666Y-104326190D02*
X107154761Y-104326190D01*
X107154761Y-103826190D01*
X106750000Y-104064285D02*
X106583333Y-104064285D01*
X106511904Y-104326190D02*
X106750000Y-104326190D01*
X106750000Y-103826190D01*
X106511904Y-103826190D01*
X106297619Y-104326190D02*
X106297619Y-103826190D01*
X106178571Y-103826190D01*
X106107142Y-103850000D01*
X106059523Y-103897619D01*
X106035714Y-103945238D01*
X106011904Y-104040476D01*
X106011904Y-104111904D01*
X106035714Y-104207142D01*
X106059523Y-104254761D01*
X106107142Y-104302380D01*
X106178571Y-104326190D01*
X106297619Y-104326190D01*
X104280952Y-103950000D02*
X104328571Y-103926190D01*
X104400000Y-103926190D01*
X104471428Y-103950000D01*
X104519047Y-103997619D01*
X104542857Y-104045238D01*
X104566666Y-104140476D01*
X104566666Y-104211904D01*
X104542857Y-104307142D01*
X104519047Y-104354761D01*
X104471428Y-104402380D01*
X104400000Y-104426190D01*
X104352380Y-104426190D01*
X104280952Y-104402380D01*
X104257142Y-104378571D01*
X104257142Y-104211904D01*
X104352380Y-104211904D01*
X104042857Y-104426190D02*
X104042857Y-103926190D01*
X103757142Y-104426190D01*
X103757142Y-103926190D01*
X103519047Y-104426190D02*
X103519047Y-103926190D01*
X103400000Y-103926190D01*
X103328571Y-103950000D01*
X103280952Y-103997619D01*
X103257142Y-104045238D01*
X103233333Y-104140476D01*
X103233333Y-104211904D01*
X103257142Y-104307142D01*
X103280952Y-104354761D01*
X103328571Y-104402380D01*
X103400000Y-104426190D01*
X103519047Y-104426190D01*
X102477857Y-103423690D02*
X102715952Y-103423690D01*
X102715952Y-102923690D01*
X102311190Y-103161785D02*
X102144523Y-103161785D01*
X102073095Y-103423690D02*
X102311190Y-103423690D01*
X102311190Y-102923690D01*
X102073095Y-102923690D01*
X101858809Y-103423690D02*
X101858809Y-102923690D01*
X101739761Y-102923690D01*
X101668333Y-102947500D01*
X101620714Y-102995119D01*
X101596904Y-103042738D01*
X101573095Y-103137976D01*
X101573095Y-103209404D01*
X101596904Y-103304642D01*
X101620714Y-103352261D01*
X101668333Y-103399880D01*
X101739761Y-103423690D01*
X101858809Y-103423690D01*
X101192142Y-103161785D02*
X101120714Y-103185595D01*
X101096904Y-103209404D01*
X101073095Y-103257023D01*
X101073095Y-103328452D01*
X101096904Y-103376071D01*
X101120714Y-103399880D01*
X101168333Y-103423690D01*
X101358809Y-103423690D01*
X101358809Y-102923690D01*
X101192142Y-102923690D01*
X101144523Y-102947500D01*
X101120714Y-102971309D01*
X101096904Y-103018928D01*
X101096904Y-103066547D01*
X101120714Y-103114166D01*
X101144523Y-103137976D01*
X101192142Y-103161785D01*
X101358809Y-103161785D01*
X100787380Y-103423690D02*
X100835000Y-103399880D01*
X100858809Y-103376071D01*
X100882619Y-103328452D01*
X100882619Y-103185595D01*
X100858809Y-103137976D01*
X100835000Y-103114166D01*
X100787380Y-103090357D01*
X100715952Y-103090357D01*
X100668333Y-103114166D01*
X100644523Y-103137976D01*
X100620714Y-103185595D01*
X100620714Y-103328452D01*
X100644523Y-103376071D01*
X100668333Y-103399880D01*
X100715952Y-103423690D01*
X100787380Y-103423690D01*
X100192142Y-103423690D02*
X100192142Y-103161785D01*
X100215952Y-103114166D01*
X100263571Y-103090357D01*
X100358809Y-103090357D01*
X100406428Y-103114166D01*
X100192142Y-103399880D02*
X100239761Y-103423690D01*
X100358809Y-103423690D01*
X100406428Y-103399880D01*
X100430238Y-103352261D01*
X100430238Y-103304642D01*
X100406428Y-103257023D01*
X100358809Y-103233214D01*
X100239761Y-103233214D01*
X100192142Y-103209404D01*
X99954047Y-103423690D02*
X99954047Y-103090357D01*
X99954047Y-103185595D02*
X99930238Y-103137976D01*
X99906428Y-103114166D01*
X99858809Y-103090357D01*
X99811190Y-103090357D01*
X99430238Y-103423690D02*
X99430238Y-102923690D01*
X99430238Y-103399880D02*
X99477857Y-103423690D01*
X99573095Y-103423690D01*
X99620714Y-103399880D01*
X99644523Y-103376071D01*
X99668333Y-103328452D01*
X99668333Y-103185595D01*
X99644523Y-103137976D01*
X99620714Y-103114166D01*
X99573095Y-103090357D01*
X99477857Y-103090357D01*
X99430238Y-103114166D01*
X99311190Y-103471309D02*
X98930238Y-103471309D01*
X98596904Y-103090357D02*
X98596904Y-103423690D01*
X98715952Y-102899880D02*
X98835000Y-103257023D01*
X98525476Y-103257023D01*
X98382619Y-103423690D02*
X98120714Y-103090357D01*
X98382619Y-103090357D02*
X98120714Y-103423690D01*
X97954047Y-102971309D02*
X97930238Y-102947500D01*
X97882619Y-102923690D01*
X97763571Y-102923690D01*
X97715952Y-102947500D01*
X97692142Y-102971309D01*
X97668333Y-103018928D01*
X97668333Y-103066547D01*
X97692142Y-103137976D01*
X97977857Y-103423690D01*
X97668333Y-103423690D01*
X97573095Y-103471309D02*
X97192142Y-103471309D01*
X97073095Y-103090357D02*
X97073095Y-103590357D01*
X97073095Y-103114166D02*
X97025476Y-103090357D01*
X96930238Y-103090357D01*
X96882619Y-103114166D01*
X96858809Y-103137976D01*
X96835000Y-103185595D01*
X96835000Y-103328452D01*
X96858809Y-103376071D01*
X96882619Y-103399880D01*
X96930238Y-103423690D01*
X97025476Y-103423690D01*
X97073095Y-103399880D01*
X96644523Y-102971309D02*
X96620714Y-102947500D01*
X96573095Y-102923690D01*
X96454047Y-102923690D01*
X96406428Y-102947500D01*
X96382619Y-102971309D01*
X96358809Y-103018928D01*
X96358809Y-103066547D01*
X96382619Y-103137976D01*
X96668333Y-103423690D01*
X96358809Y-103423690D01*
X96049285Y-102923690D02*
X96001666Y-102923690D01*
X95954047Y-102947500D01*
X95930238Y-102971309D01*
X95906428Y-103018928D01*
X95882619Y-103114166D01*
X95882619Y-103233214D01*
X95906428Y-103328452D01*
X95930238Y-103376071D01*
X95954047Y-103399880D01*
X96001666Y-103423690D01*
X96049285Y-103423690D01*
X96096904Y-103399880D01*
X96120714Y-103376071D01*
X96144523Y-103328452D01*
X96168333Y-103233214D01*
X96168333Y-103114166D01*
X96144523Y-103018928D01*
X96120714Y-102971309D01*
X96096904Y-102947500D01*
X96049285Y-102923690D01*
X95715952Y-103423690D02*
X95454047Y-103090357D01*
X95715952Y-103090357D02*
X95454047Y-103423690D01*
X95025476Y-102923690D02*
X95263571Y-102923690D01*
X95287380Y-103161785D01*
X95263571Y-103137976D01*
X95215952Y-103114166D01*
X95096904Y-103114166D01*
X95049285Y-103137976D01*
X95025476Y-103161785D01*
X95001666Y-103209404D01*
X95001666Y-103328452D01*
X95025476Y-103376071D01*
X95049285Y-103399880D01*
X95096904Y-103423690D01*
X95215952Y-103423690D01*
X95263571Y-103399880D01*
X95287380Y-103376071D01*
X102501666Y-104204880D02*
X102549285Y-104228690D01*
X102644523Y-104228690D01*
X102692142Y-104204880D01*
X102715952Y-104181071D01*
X102739761Y-104133452D01*
X102739761Y-103990595D01*
X102715952Y-103942976D01*
X102692142Y-103919166D01*
X102644523Y-103895357D01*
X102549285Y-103895357D01*
X102501666Y-103919166D01*
X102073095Y-104204880D02*
X102120714Y-104228690D01*
X102215952Y-104228690D01*
X102263571Y-104204880D01*
X102287380Y-104181071D01*
X102311190Y-104133452D01*
X102311190Y-103990595D01*
X102287380Y-103942976D01*
X102263571Y-103919166D01*
X102215952Y-103895357D01*
X102120714Y-103895357D01*
X102073095Y-103919166D01*
X101477857Y-104228690D02*
X101477857Y-103728690D01*
X101477857Y-103919166D02*
X101430238Y-103895357D01*
X101335000Y-103895357D01*
X101287380Y-103919166D01*
X101263571Y-103942976D01*
X101239761Y-103990595D01*
X101239761Y-104133452D01*
X101263571Y-104181071D01*
X101287380Y-104204880D01*
X101335000Y-104228690D01*
X101430238Y-104228690D01*
X101477857Y-104204880D01*
X101073095Y-103895357D02*
X100954047Y-104228690D01*
X100835000Y-103895357D02*
X100954047Y-104228690D01*
X101001666Y-104347738D01*
X101025476Y-104371547D01*
X101073095Y-104395357D01*
X100287380Y-104204880D02*
X100215952Y-104228690D01*
X100096904Y-104228690D01*
X100049285Y-104204880D01*
X100025476Y-104181071D01*
X100001666Y-104133452D01*
X100001666Y-104085833D01*
X100025476Y-104038214D01*
X100049285Y-104014404D01*
X100096904Y-103990595D01*
X100192142Y-103966785D01*
X100239761Y-103942976D01*
X100263571Y-103919166D01*
X100287380Y-103871547D01*
X100287380Y-103823928D01*
X100263571Y-103776309D01*
X100239761Y-103752500D01*
X100192142Y-103728690D01*
X100073095Y-103728690D01*
X100001666Y-103752500D01*
X99858809Y-103895357D02*
X99668333Y-103895357D01*
X99787380Y-103728690D02*
X99787380Y-104157261D01*
X99763571Y-104204880D01*
X99715952Y-104228690D01*
X99668333Y-104228690D01*
X99311190Y-104204880D02*
X99358809Y-104228690D01*
X99454047Y-104228690D01*
X99501666Y-104204880D01*
X99525476Y-104157261D01*
X99525476Y-103966785D01*
X99501666Y-103919166D01*
X99454047Y-103895357D01*
X99358809Y-103895357D01*
X99311190Y-103919166D01*
X99287380Y-103966785D01*
X99287380Y-104014404D01*
X99525476Y-104062023D01*
X99144523Y-103895357D02*
X98954047Y-103895357D01*
X99073095Y-104228690D02*
X99073095Y-103800119D01*
X99049285Y-103752500D01*
X99001666Y-103728690D01*
X98954047Y-103728690D01*
X98573095Y-104228690D02*
X98573095Y-103966785D01*
X98596904Y-103919166D01*
X98644523Y-103895357D01*
X98739761Y-103895357D01*
X98787380Y-103919166D01*
X98573095Y-104204880D02*
X98620714Y-104228690D01*
X98739761Y-104228690D01*
X98787380Y-104204880D01*
X98811190Y-104157261D01*
X98811190Y-104109642D01*
X98787380Y-104062023D01*
X98739761Y-104038214D01*
X98620714Y-104038214D01*
X98573095Y-104014404D01*
X98335000Y-103895357D02*
X98335000Y-104228690D01*
X98335000Y-103942976D02*
X98311190Y-103919166D01*
X98263571Y-103895357D01*
X98192142Y-103895357D01*
X98144523Y-103919166D01*
X98120714Y-103966785D01*
X98120714Y-104228690D01*
X97501666Y-104228690D02*
X97501666Y-103728690D01*
X97215952Y-104228690D02*
X97430238Y-103942976D01*
X97215952Y-103728690D02*
X97501666Y-104014404D01*
X97001666Y-104228690D02*
X97001666Y-103895357D01*
X97001666Y-103990595D02*
X96977857Y-103942976D01*
X96954047Y-103919166D01*
X96906428Y-103895357D01*
X96858809Y-103895357D01*
X96477857Y-103895357D02*
X96477857Y-104228690D01*
X96692142Y-103895357D02*
X96692142Y-104157261D01*
X96668333Y-104204880D01*
X96620714Y-104228690D01*
X96549285Y-104228690D01*
X96501666Y-104204880D01*
X96477857Y-104181071D01*
X96668333Y-103728690D02*
X96644523Y-103752500D01*
X96668333Y-103776309D01*
X96692142Y-103752500D01*
X96668333Y-103728690D01*
X96668333Y-103776309D01*
X96477857Y-103728690D02*
X96454047Y-103752500D01*
X96477857Y-103776309D01*
X96501666Y-103752500D01*
X96477857Y-103728690D01*
X96477857Y-103776309D01*
X96025476Y-103895357D02*
X96025476Y-104300119D01*
X96049285Y-104347738D01*
X96073095Y-104371547D01*
X96120714Y-104395357D01*
X96192142Y-104395357D01*
X96239761Y-104371547D01*
X96025476Y-104204880D02*
X96073095Y-104228690D01*
X96168333Y-104228690D01*
X96215952Y-104204880D01*
X96239761Y-104181071D01*
X96263571Y-104133452D01*
X96263571Y-103990595D01*
X96239761Y-103942976D01*
X96215952Y-103919166D01*
X96168333Y-103895357D01*
X96073095Y-103895357D01*
X96025476Y-103919166D01*
X95596904Y-104204880D02*
X95644523Y-104228690D01*
X95739761Y-104228690D01*
X95787380Y-104204880D01*
X95811190Y-104157261D01*
X95811190Y-103966785D01*
X95787380Y-103919166D01*
X95739761Y-103895357D01*
X95644523Y-103895357D01*
X95596904Y-103919166D01*
X95573095Y-103966785D01*
X95573095Y-104014404D01*
X95811190Y-104062023D01*
X95358809Y-104228690D02*
X95358809Y-103895357D01*
X95358809Y-103990595D02*
X95335000Y-103942976D01*
X95311190Y-103919166D01*
X95263571Y-103895357D01*
X95215952Y-103895357D01*
X94692142Y-104204880D02*
X94644523Y-104228690D01*
X94549285Y-104228690D01*
X94501666Y-104204880D01*
X94477857Y-104157261D01*
X94477857Y-104133452D01*
X94501666Y-104085833D01*
X94549285Y-104062023D01*
X94620714Y-104062023D01*
X94668333Y-104038214D01*
X94692142Y-103990595D01*
X94692142Y-103966785D01*
X94668333Y-103919166D01*
X94620714Y-103895357D01*
X94549285Y-103895357D01*
X94501666Y-103919166D01*
X94263571Y-104038214D02*
X93882619Y-104038214D01*
X93573095Y-104228690D02*
X93620714Y-104204880D01*
X93644523Y-104157261D01*
X93644523Y-103728690D01*
X93382619Y-104228690D02*
X93382619Y-103895357D01*
X93382619Y-103728690D02*
X93406428Y-103752500D01*
X93382619Y-103776309D01*
X93358809Y-103752500D01*
X93382619Y-103728690D01*
X93382619Y-103776309D01*
X92930238Y-103895357D02*
X92930238Y-104300119D01*
X92954047Y-104347738D01*
X92977857Y-104371547D01*
X93025476Y-104395357D01*
X93096904Y-104395357D01*
X93144523Y-104371547D01*
X92930238Y-104204880D02*
X92977857Y-104228690D01*
X93073095Y-104228690D01*
X93120714Y-104204880D01*
X93144523Y-104181071D01*
X93168333Y-104133452D01*
X93168333Y-103990595D01*
X93144523Y-103942976D01*
X93120714Y-103919166D01*
X93073095Y-103895357D01*
X92977857Y-103895357D01*
X92930238Y-103919166D01*
X92692142Y-104228690D02*
X92692142Y-103728690D01*
X92477857Y-104228690D02*
X92477857Y-103966785D01*
X92501666Y-103919166D01*
X92549285Y-103895357D01*
X92620714Y-103895357D01*
X92668333Y-103919166D01*
X92692142Y-103942976D01*
X92311190Y-103895357D02*
X92120714Y-103895357D01*
X92239761Y-103728690D02*
X92239761Y-104157261D01*
X92215952Y-104204880D01*
X92168333Y-104228690D01*
X92120714Y-104228690D01*
X91954047Y-104181071D02*
X91930238Y-104204880D01*
X91954047Y-104228690D01*
X91977857Y-104204880D01*
X91954047Y-104181071D01*
X91954047Y-104228690D01*
X91525476Y-104204880D02*
X91573095Y-104228690D01*
X91668333Y-104228690D01*
X91715952Y-104204880D01*
X91739761Y-104157261D01*
X91739761Y-103966785D01*
X91715952Y-103919166D01*
X91668333Y-103895357D01*
X91573095Y-103895357D01*
X91525476Y-103919166D01*
X91501666Y-103966785D01*
X91501666Y-104014404D01*
X91739761Y-104062023D01*
X91073095Y-103895357D02*
X91073095Y-104228690D01*
X91287380Y-103895357D02*
X91287380Y-104157261D01*
X91263571Y-104204880D01*
X91215952Y-104228690D01*
X91144523Y-104228690D01*
X91096904Y-104204880D01*
X91073095Y-104181071D01*
M02*
