%TF.GenerationSoftware,KiCad,Pcbnew,5.99.0-unknown-4d9d1a5~100~ubuntu19.10.1*%
%TF.CreationDate,2020-03-24T19:27:40+01:00*%
%TF.ProjectId,LEDBoard_4x2_p20x5,4c454442-6f61-4726-945f-3478325f7032,v1.0.0*%
%TF.SameCoordinates,Original*%
%TF.FileFunction,Legend,Top*%
%TF.FilePolarity,Positive*%
%FSLAX46Y46*%
G04 Gerber Fmt 4.6, Leading zero omitted, Abs format (unit mm)*
G04 Created by KiCad (PCBNEW 5.99.0-unknown-4d9d1a5~100~ubuntu19.10.1) date 2020-03-24 19:27:40*
%MOMM*%
%LPD*%
G01*
G04 APERTURE LIST*
%ADD10C,0.100000*%
%ADD11C,0.120000*%
G04 APERTURE END LIST*
D10*
X73122142Y-104226190D02*
X72884047Y-104226190D01*
X72884047Y-103726190D01*
X73288809Y-103964285D02*
X73455476Y-103964285D01*
X73526904Y-104226190D02*
X73288809Y-104226190D01*
X73288809Y-103726190D01*
X73526904Y-103726190D01*
X73741190Y-104226190D02*
X73741190Y-103726190D01*
X73860238Y-103726190D01*
X73931666Y-103750000D01*
X73979285Y-103797619D01*
X74003095Y-103845238D01*
X74026904Y-103940476D01*
X74026904Y-104011904D01*
X74003095Y-104107142D01*
X73979285Y-104154761D01*
X73931666Y-104202380D01*
X73860238Y-104226190D01*
X73741190Y-104226190D01*
X74407857Y-103964285D02*
X74479285Y-103988095D01*
X74503095Y-104011904D01*
X74526904Y-104059523D01*
X74526904Y-104130952D01*
X74503095Y-104178571D01*
X74479285Y-104202380D01*
X74431666Y-104226190D01*
X74241190Y-104226190D01*
X74241190Y-103726190D01*
X74407857Y-103726190D01*
X74455476Y-103750000D01*
X74479285Y-103773809D01*
X74503095Y-103821428D01*
X74503095Y-103869047D01*
X74479285Y-103916666D01*
X74455476Y-103940476D01*
X74407857Y-103964285D01*
X74241190Y-103964285D01*
X74812619Y-104226190D02*
X74765000Y-104202380D01*
X74741190Y-104178571D01*
X74717380Y-104130952D01*
X74717380Y-103988095D01*
X74741190Y-103940476D01*
X74765000Y-103916666D01*
X74812619Y-103892857D01*
X74884047Y-103892857D01*
X74931666Y-103916666D01*
X74955476Y-103940476D01*
X74979285Y-103988095D01*
X74979285Y-104130952D01*
X74955476Y-104178571D01*
X74931666Y-104202380D01*
X74884047Y-104226190D01*
X74812619Y-104226190D01*
X75407857Y-104226190D02*
X75407857Y-103964285D01*
X75384047Y-103916666D01*
X75336428Y-103892857D01*
X75241190Y-103892857D01*
X75193571Y-103916666D01*
X75407857Y-104202380D02*
X75360238Y-104226190D01*
X75241190Y-104226190D01*
X75193571Y-104202380D01*
X75169761Y-104154761D01*
X75169761Y-104107142D01*
X75193571Y-104059523D01*
X75241190Y-104035714D01*
X75360238Y-104035714D01*
X75407857Y-104011904D01*
X75645952Y-104226190D02*
X75645952Y-103892857D01*
X75645952Y-103988095D02*
X75669761Y-103940476D01*
X75693571Y-103916666D01*
X75741190Y-103892857D01*
X75788809Y-103892857D01*
X76169761Y-104226190D02*
X76169761Y-103726190D01*
X76169761Y-104202380D02*
X76122142Y-104226190D01*
X76026904Y-104226190D01*
X75979285Y-104202380D01*
X75955476Y-104178571D01*
X75931666Y-104130952D01*
X75931666Y-103988095D01*
X75955476Y-103940476D01*
X75979285Y-103916666D01*
X76026904Y-103892857D01*
X76122142Y-103892857D01*
X76169761Y-103916666D01*
X76288809Y-104273809D02*
X76669761Y-104273809D01*
X77003095Y-103892857D02*
X77003095Y-104226190D01*
X76884047Y-103702380D02*
X76765000Y-104059523D01*
X77074523Y-104059523D01*
X77217380Y-104226190D02*
X77479285Y-103892857D01*
X77217380Y-103892857D02*
X77479285Y-104226190D01*
X77645952Y-103773809D02*
X77669761Y-103750000D01*
X77717380Y-103726190D01*
X77836428Y-103726190D01*
X77884047Y-103750000D01*
X77907857Y-103773809D01*
X77931666Y-103821428D01*
X77931666Y-103869047D01*
X77907857Y-103940476D01*
X77622142Y-104226190D01*
X77931666Y-104226190D01*
X78026904Y-104273809D02*
X78407857Y-104273809D01*
X78526904Y-103892857D02*
X78526904Y-104392857D01*
X78526904Y-103916666D02*
X78574523Y-103892857D01*
X78669761Y-103892857D01*
X78717380Y-103916666D01*
X78741190Y-103940476D01*
X78765000Y-103988095D01*
X78765000Y-104130952D01*
X78741190Y-104178571D01*
X78717380Y-104202380D01*
X78669761Y-104226190D01*
X78574523Y-104226190D01*
X78526904Y-104202380D01*
X78955476Y-103773809D02*
X78979285Y-103750000D01*
X79026904Y-103726190D01*
X79145952Y-103726190D01*
X79193571Y-103750000D01*
X79217380Y-103773809D01*
X79241190Y-103821428D01*
X79241190Y-103869047D01*
X79217380Y-103940476D01*
X78931666Y-104226190D01*
X79241190Y-104226190D01*
X79550714Y-103726190D02*
X79598333Y-103726190D01*
X79645952Y-103750000D01*
X79669761Y-103773809D01*
X79693571Y-103821428D01*
X79717380Y-103916666D01*
X79717380Y-104035714D01*
X79693571Y-104130952D01*
X79669761Y-104178571D01*
X79645952Y-104202380D01*
X79598333Y-104226190D01*
X79550714Y-104226190D01*
X79503095Y-104202380D01*
X79479285Y-104178571D01*
X79455476Y-104130952D01*
X79431666Y-104035714D01*
X79431666Y-103916666D01*
X79455476Y-103821428D01*
X79479285Y-103773809D01*
X79503095Y-103750000D01*
X79550714Y-103726190D01*
X79884047Y-104226190D02*
X80145952Y-103892857D01*
X79884047Y-103892857D02*
X80145952Y-104226190D01*
X80574523Y-103726190D02*
X80336428Y-103726190D01*
X80312619Y-103964285D01*
X80336428Y-103940476D01*
X80384047Y-103916666D01*
X80503095Y-103916666D01*
X80550714Y-103940476D01*
X80574523Y-103964285D01*
X80598333Y-104011904D01*
X80598333Y-104130952D01*
X80574523Y-104178571D01*
X80550714Y-104202380D01*
X80503095Y-104226190D01*
X80384047Y-104226190D01*
X80336428Y-104202380D01*
X80312619Y-104178571D01*
X81407857Y-104202380D02*
X81360238Y-104226190D01*
X81265000Y-104226190D01*
X81217380Y-104202380D01*
X81193571Y-104178571D01*
X81169761Y-104130952D01*
X81169761Y-103988095D01*
X81193571Y-103940476D01*
X81217380Y-103916666D01*
X81265000Y-103892857D01*
X81360238Y-103892857D01*
X81407857Y-103916666D01*
X81836428Y-104202380D02*
X81788809Y-104226190D01*
X81693571Y-104226190D01*
X81645952Y-104202380D01*
X81622142Y-104178571D01*
X81598333Y-104130952D01*
X81598333Y-103988095D01*
X81622142Y-103940476D01*
X81645952Y-103916666D01*
X81693571Y-103892857D01*
X81788809Y-103892857D01*
X81836428Y-103916666D01*
X82431666Y-104226190D02*
X82431666Y-103726190D01*
X82431666Y-103916666D02*
X82479285Y-103892857D01*
X82574523Y-103892857D01*
X82622142Y-103916666D01*
X82645952Y-103940476D01*
X82669761Y-103988095D01*
X82669761Y-104130952D01*
X82645952Y-104178571D01*
X82622142Y-104202380D01*
X82574523Y-104226190D01*
X82479285Y-104226190D01*
X82431666Y-104202380D01*
X82836428Y-103892857D02*
X82955476Y-104226190D01*
X83074523Y-103892857D02*
X82955476Y-104226190D01*
X82907857Y-104345238D01*
X82884047Y-104369047D01*
X82836428Y-104392857D01*
X83622142Y-104202380D02*
X83693571Y-104226190D01*
X83812619Y-104226190D01*
X83860238Y-104202380D01*
X83884047Y-104178571D01*
X83907857Y-104130952D01*
X83907857Y-104083333D01*
X83884047Y-104035714D01*
X83860238Y-104011904D01*
X83812619Y-103988095D01*
X83717380Y-103964285D01*
X83669761Y-103940476D01*
X83645952Y-103916666D01*
X83622142Y-103869047D01*
X83622142Y-103821428D01*
X83645952Y-103773809D01*
X83669761Y-103750000D01*
X83717380Y-103726190D01*
X83836428Y-103726190D01*
X83907857Y-103750000D01*
X84050714Y-103892857D02*
X84241190Y-103892857D01*
X84122142Y-103726190D02*
X84122142Y-104154761D01*
X84145952Y-104202380D01*
X84193571Y-104226190D01*
X84241190Y-104226190D01*
X84598333Y-104202380D02*
X84550714Y-104226190D01*
X84455476Y-104226190D01*
X84407857Y-104202380D01*
X84384047Y-104154761D01*
X84384047Y-103964285D01*
X84407857Y-103916666D01*
X84455476Y-103892857D01*
X84550714Y-103892857D01*
X84598333Y-103916666D01*
X84622142Y-103964285D01*
X84622142Y-104011904D01*
X84384047Y-104059523D01*
X84765000Y-103892857D02*
X84955476Y-103892857D01*
X84836428Y-104226190D02*
X84836428Y-103797619D01*
X84860238Y-103750000D01*
X84907857Y-103726190D01*
X84955476Y-103726190D01*
X85336428Y-104226190D02*
X85336428Y-103964285D01*
X85312619Y-103916666D01*
X85265000Y-103892857D01*
X85169761Y-103892857D01*
X85122142Y-103916666D01*
X85336428Y-104202380D02*
X85288809Y-104226190D01*
X85169761Y-104226190D01*
X85122142Y-104202380D01*
X85098333Y-104154761D01*
X85098333Y-104107142D01*
X85122142Y-104059523D01*
X85169761Y-104035714D01*
X85288809Y-104035714D01*
X85336428Y-104011904D01*
X85574523Y-103892857D02*
X85574523Y-104226190D01*
X85574523Y-103940476D02*
X85598333Y-103916666D01*
X85645952Y-103892857D01*
X85717380Y-103892857D01*
X85765000Y-103916666D01*
X85788809Y-103964285D01*
X85788809Y-104226190D01*
X86407857Y-104226190D02*
X86407857Y-103726190D01*
X86693571Y-104226190D02*
X86479285Y-103940476D01*
X86693571Y-103726190D02*
X86407857Y-104011904D01*
X86907857Y-104226190D02*
X86907857Y-103892857D01*
X86907857Y-103988095D02*
X86931666Y-103940476D01*
X86955476Y-103916666D01*
X87003095Y-103892857D01*
X87050714Y-103892857D01*
X87431666Y-103892857D02*
X87431666Y-104226190D01*
X87217380Y-103892857D02*
X87217380Y-104154761D01*
X87241190Y-104202380D01*
X87288809Y-104226190D01*
X87360238Y-104226190D01*
X87407857Y-104202380D01*
X87431666Y-104178571D01*
X87241190Y-103726190D02*
X87265000Y-103750000D01*
X87241190Y-103773809D01*
X87217380Y-103750000D01*
X87241190Y-103726190D01*
X87241190Y-103773809D01*
X87431666Y-103726190D02*
X87455476Y-103750000D01*
X87431666Y-103773809D01*
X87407857Y-103750000D01*
X87431666Y-103726190D01*
X87431666Y-103773809D01*
X87884047Y-103892857D02*
X87884047Y-104297619D01*
X87860238Y-104345238D01*
X87836428Y-104369047D01*
X87788809Y-104392857D01*
X87717380Y-104392857D01*
X87669761Y-104369047D01*
X87884047Y-104202380D02*
X87836428Y-104226190D01*
X87741190Y-104226190D01*
X87693571Y-104202380D01*
X87669761Y-104178571D01*
X87645952Y-104130952D01*
X87645952Y-103988095D01*
X87669761Y-103940476D01*
X87693571Y-103916666D01*
X87741190Y-103892857D01*
X87836428Y-103892857D01*
X87884047Y-103916666D01*
X88312619Y-104202380D02*
X88264999Y-104226190D01*
X88169761Y-104226190D01*
X88122142Y-104202380D01*
X88098333Y-104154761D01*
X88098333Y-103964285D01*
X88122142Y-103916666D01*
X88169761Y-103892857D01*
X88264999Y-103892857D01*
X88312619Y-103916666D01*
X88336428Y-103964285D01*
X88336428Y-104011904D01*
X88098333Y-104059523D01*
X88550714Y-104226190D02*
X88550714Y-103892857D01*
X88550714Y-103988095D02*
X88574523Y-103940476D01*
X88598333Y-103916666D01*
X88645952Y-103892857D01*
X88693571Y-103892857D01*
X89217380Y-104202380D02*
X89265000Y-104226190D01*
X89360238Y-104226190D01*
X89407857Y-104202380D01*
X89431666Y-104154761D01*
X89431666Y-104130952D01*
X89407857Y-104083333D01*
X89360238Y-104059523D01*
X89288809Y-104059523D01*
X89241190Y-104035714D01*
X89217380Y-103988095D01*
X89217380Y-103964285D01*
X89241190Y-103916666D01*
X89288809Y-103892857D01*
X89360238Y-103892857D01*
X89407857Y-103916666D01*
X89645952Y-104035714D02*
X90026904Y-104035714D01*
X90336428Y-104226190D02*
X90288809Y-104202380D01*
X90265000Y-104154761D01*
X90265000Y-103726190D01*
X90526904Y-104226190D02*
X90526904Y-103892857D01*
X90526904Y-103726190D02*
X90503095Y-103750000D01*
X90526904Y-103773809D01*
X90550714Y-103750000D01*
X90526904Y-103726190D01*
X90526904Y-103773809D01*
X90979285Y-103892857D02*
X90979285Y-104297619D01*
X90955476Y-104345238D01*
X90931666Y-104369047D01*
X90884047Y-104392857D01*
X90812619Y-104392857D01*
X90765000Y-104369047D01*
X90979285Y-104202380D02*
X90931666Y-104226190D01*
X90836428Y-104226190D01*
X90788809Y-104202380D01*
X90765000Y-104178571D01*
X90741190Y-104130952D01*
X90741190Y-103988095D01*
X90765000Y-103940476D01*
X90788809Y-103916666D01*
X90836428Y-103892857D01*
X90931666Y-103892857D01*
X90979285Y-103916666D01*
X91217380Y-104226190D02*
X91217380Y-103726190D01*
X91431666Y-104226190D02*
X91431666Y-103964285D01*
X91407857Y-103916666D01*
X91360238Y-103892857D01*
X91288809Y-103892857D01*
X91241190Y-103916666D01*
X91217380Y-103940476D01*
X91598333Y-103892857D02*
X91788809Y-103892857D01*
X91669761Y-103726190D02*
X91669761Y-104154761D01*
X91693571Y-104202380D01*
X91741190Y-104226190D01*
X91788809Y-104226190D01*
X91955476Y-104178571D02*
X91979285Y-104202380D01*
X91955476Y-104226190D01*
X91931666Y-104202380D01*
X91955476Y-104178571D01*
X91955476Y-104226190D01*
X92384047Y-104202380D02*
X92336428Y-104226190D01*
X92241190Y-104226190D01*
X92193571Y-104202380D01*
X92169761Y-104154761D01*
X92169761Y-103964285D01*
X92193571Y-103916666D01*
X92241190Y-103892857D01*
X92336428Y-103892857D01*
X92384047Y-103916666D01*
X92407857Y-103964285D01*
X92407857Y-104011904D01*
X92169761Y-104059523D01*
X92836428Y-103892857D02*
X92836428Y-104226190D01*
X92622142Y-103892857D02*
X92622142Y-104154761D01*
X92645952Y-104202380D01*
X92693571Y-104226190D01*
X92765000Y-104226190D01*
X92812619Y-104202380D01*
X92836428Y-104178571D01*
X93431666Y-103773809D02*
X93455476Y-103750000D01*
X93503095Y-103726190D01*
X93622142Y-103726190D01*
X93669761Y-103750000D01*
X93693571Y-103773809D01*
X93717380Y-103821428D01*
X93717380Y-103869047D01*
X93693571Y-103940476D01*
X93407857Y-104226190D01*
X93717380Y-104226190D01*
X94145952Y-103892857D02*
X94145952Y-104226190D01*
X94026904Y-103702380D02*
X93907857Y-104059523D01*
X94217380Y-104059523D01*
X94407857Y-104178571D02*
X94431666Y-104202380D01*
X94407857Y-104226190D01*
X94384047Y-104202380D01*
X94407857Y-104178571D01*
X94407857Y-104226190D01*
X94741190Y-103726190D02*
X94788809Y-103726190D01*
X94836428Y-103750000D01*
X94860238Y-103773809D01*
X94884047Y-103821428D01*
X94907857Y-103916666D01*
X94907857Y-104035714D01*
X94884047Y-104130952D01*
X94860238Y-104178571D01*
X94836428Y-104202380D01*
X94788809Y-104226190D01*
X94741190Y-104226190D01*
X94693571Y-104202380D01*
X94669761Y-104178571D01*
X94645952Y-104130952D01*
X94622142Y-104035714D01*
X94622142Y-103916666D01*
X94645952Y-103821428D01*
X94669761Y-103773809D01*
X94693571Y-103750000D01*
X94741190Y-103726190D01*
X95074523Y-103726190D02*
X95384047Y-103726190D01*
X95217380Y-103916666D01*
X95288809Y-103916666D01*
X95336428Y-103940476D01*
X95360238Y-103964285D01*
X95384047Y-104011904D01*
X95384047Y-104130952D01*
X95360238Y-104178571D01*
X95336428Y-104202380D01*
X95288809Y-104226190D01*
X95145952Y-104226190D01*
X95098333Y-104202380D01*
X95074523Y-104178571D01*
X95598333Y-104178571D02*
X95622142Y-104202380D01*
X95598333Y-104226190D01*
X95574523Y-104202380D01*
X95598333Y-104178571D01*
X95598333Y-104226190D01*
X95812619Y-103773809D02*
X95836428Y-103750000D01*
X95884047Y-103726190D01*
X96003095Y-103726190D01*
X96050714Y-103750000D01*
X96074523Y-103773809D01*
X96098333Y-103821428D01*
X96098333Y-103869047D01*
X96074523Y-103940476D01*
X95788809Y-104226190D01*
X96098333Y-104226190D01*
X96407857Y-103726190D02*
X96455476Y-103726190D01*
X96503095Y-103750000D01*
X96526904Y-103773809D01*
X96550714Y-103821428D01*
X96574523Y-103916666D01*
X96574523Y-104035714D01*
X96550714Y-104130952D01*
X96526904Y-104178571D01*
X96503095Y-104202380D01*
X96455476Y-104226190D01*
X96407857Y-104226190D01*
X96360238Y-104202380D01*
X96336428Y-104178571D01*
X96312619Y-104130952D01*
X96288809Y-104035714D01*
X96288809Y-103916666D01*
X96312619Y-103821428D01*
X96336428Y-103773809D01*
X96360238Y-103750000D01*
X96407857Y-103726190D01*
X96765000Y-103773809D02*
X96788809Y-103750000D01*
X96836428Y-103726190D01*
X96955476Y-103726190D01*
X97003095Y-103750000D01*
X97026904Y-103773809D01*
X97050714Y-103821428D01*
X97050714Y-103869047D01*
X97026904Y-103940476D01*
X96741190Y-104226190D01*
X97050714Y-104226190D01*
X97360238Y-103726190D02*
X97407857Y-103726190D01*
X97455476Y-103750000D01*
X97479285Y-103773809D01*
X97503095Y-103821428D01*
X97526904Y-103916666D01*
X97526904Y-104035714D01*
X97503095Y-104130952D01*
X97479285Y-104178571D01*
X97455476Y-104202380D01*
X97407857Y-104226190D01*
X97360238Y-104226190D01*
X97312619Y-104202380D01*
X97288809Y-104178571D01*
X97265000Y-104130952D01*
X97241190Y-104035714D01*
X97241190Y-103916666D01*
X97265000Y-103821428D01*
X97288809Y-103773809D01*
X97312619Y-103750000D01*
X97360238Y-103726190D01*
X98074523Y-103892857D02*
X98193571Y-104226190D01*
X98312619Y-103892857D01*
X98765000Y-104226190D02*
X98479285Y-104226190D01*
X98622142Y-104226190D02*
X98622142Y-103726190D01*
X98574523Y-103797619D01*
X98526904Y-103845238D01*
X98479285Y-103869047D01*
X98979285Y-104178571D02*
X99003095Y-104202380D01*
X98979285Y-104226190D01*
X98955476Y-104202380D01*
X98979285Y-104178571D01*
X98979285Y-104226190D01*
X99312619Y-103726190D02*
X99360238Y-103726190D01*
X99407857Y-103750000D01*
X99431666Y-103773809D01*
X99455476Y-103821428D01*
X99479285Y-103916666D01*
X99479285Y-104035714D01*
X99455476Y-104130952D01*
X99431666Y-104178571D01*
X99407857Y-104202380D01*
X99360238Y-104226190D01*
X99312619Y-104226190D01*
X99265000Y-104202380D01*
X99241190Y-104178571D01*
X99217380Y-104130952D01*
X99193571Y-104035714D01*
X99193571Y-103916666D01*
X99217380Y-103821428D01*
X99241190Y-103773809D01*
X99265000Y-103750000D01*
X99312619Y-103726190D01*
X99693571Y-104178571D02*
X99717380Y-104202380D01*
X99693571Y-104226190D01*
X99669761Y-104202380D01*
X99693571Y-104178571D01*
X99693571Y-104226190D01*
X100026904Y-103726190D02*
X100074523Y-103726190D01*
X100122142Y-103750000D01*
X100145952Y-103773809D01*
X100169761Y-103821428D01*
X100193571Y-103916666D01*
X100193571Y-104035714D01*
X100169761Y-104130952D01*
X100145952Y-104178571D01*
X100122142Y-104202380D01*
X100074523Y-104226190D01*
X100026904Y-104226190D01*
X99979285Y-104202380D01*
X99955476Y-104178571D01*
X99931666Y-104130952D01*
X99907857Y-104035714D01*
X99907857Y-103916666D01*
X99931666Y-103821428D01*
X99955476Y-103773809D01*
X99979285Y-103750000D01*
X100026904Y-103726190D01*
X98811904Y-102126190D02*
X98811904Y-101626190D01*
X98811904Y-102102380D02*
X98764285Y-102126190D01*
X98669047Y-102126190D01*
X98621428Y-102102380D01*
X98597619Y-102078571D01*
X98573809Y-102030952D01*
X98573809Y-101888095D01*
X98597619Y-101840476D01*
X98621428Y-101816666D01*
X98669047Y-101792857D01*
X98764285Y-101792857D01*
X98811904Y-101816666D01*
X99264285Y-102126190D02*
X99264285Y-101864285D01*
X99240476Y-101816666D01*
X99192857Y-101792857D01*
X99097619Y-101792857D01*
X99050000Y-101816666D01*
X99264285Y-102102380D02*
X99216666Y-102126190D01*
X99097619Y-102126190D01*
X99050000Y-102102380D01*
X99026190Y-102054761D01*
X99026190Y-102007142D01*
X99050000Y-101959523D01*
X99097619Y-101935714D01*
X99216666Y-101935714D01*
X99264285Y-101911904D01*
X99430952Y-101792857D02*
X99621428Y-101792857D01*
X99502380Y-101626190D02*
X99502380Y-102054761D01*
X99526190Y-102102380D01*
X99573809Y-102126190D01*
X99621428Y-102126190D01*
X100002380Y-102126190D02*
X100002380Y-101864285D01*
X99978571Y-101816666D01*
X99930952Y-101792857D01*
X99835714Y-101792857D01*
X99788095Y-101816666D01*
X100002380Y-102102380D02*
X99954761Y-102126190D01*
X99835714Y-102126190D01*
X99788095Y-102102380D01*
X99764285Y-102054761D01*
X99764285Y-102007142D01*
X99788095Y-101959523D01*
X99835714Y-101935714D01*
X99954761Y-101935714D01*
X100002380Y-101911904D01*
X101045238Y-102102380D02*
X100997619Y-102126190D01*
X100902380Y-102126190D01*
X100854761Y-102102380D01*
X100830952Y-102078571D01*
X100807142Y-102030952D01*
X100807142Y-101888095D01*
X100830952Y-101840476D01*
X100854761Y-101816666D01*
X100902380Y-101792857D01*
X100997619Y-101792857D01*
X101045238Y-101816666D01*
X101330952Y-102126190D02*
X101283333Y-102102380D01*
X101259523Y-102054761D01*
X101259523Y-101626190D01*
X101592857Y-102126190D02*
X101545238Y-102102380D01*
X101521428Y-102078571D01*
X101497619Y-102030952D01*
X101497619Y-101888095D01*
X101521428Y-101840476D01*
X101545238Y-101816666D01*
X101592857Y-101792857D01*
X101664285Y-101792857D01*
X101711904Y-101816666D01*
X101735714Y-101840476D01*
X101759523Y-101888095D01*
X101759523Y-102030952D01*
X101735714Y-102078571D01*
X101711904Y-102102380D01*
X101664285Y-102126190D01*
X101592857Y-102126190D01*
X102188095Y-102102380D02*
X102140476Y-102126190D01*
X102045238Y-102126190D01*
X101997619Y-102102380D01*
X101973809Y-102078571D01*
X101950000Y-102030952D01*
X101950000Y-101888095D01*
X101973809Y-101840476D01*
X101997619Y-101816666D01*
X102045238Y-101792857D01*
X102140476Y-101792857D01*
X102188095Y-101816666D01*
X102402380Y-102126190D02*
X102402380Y-101626190D01*
X102450000Y-101935714D02*
X102592857Y-102126190D01*
X102592857Y-101792857D02*
X102402380Y-101983333D01*
X99557142Y-102926190D02*
X99866666Y-102926190D01*
X99700000Y-103116666D01*
X99771428Y-103116666D01*
X99819047Y-103140476D01*
X99842857Y-103164285D01*
X99866666Y-103211904D01*
X99866666Y-103330952D01*
X99842857Y-103378571D01*
X99819047Y-103402380D01*
X99771428Y-103426190D01*
X99628571Y-103426190D01*
X99580952Y-103402380D01*
X99557142Y-103378571D01*
X100080952Y-103378571D02*
X100104761Y-103402380D01*
X100080952Y-103426190D01*
X100057142Y-103402380D01*
X100080952Y-103378571D01*
X100080952Y-103426190D01*
X100390476Y-103140476D02*
X100342857Y-103116666D01*
X100319047Y-103092857D01*
X100295238Y-103045238D01*
X100295238Y-103021428D01*
X100319047Y-102973809D01*
X100342857Y-102950000D01*
X100390476Y-102926190D01*
X100485714Y-102926190D01*
X100533333Y-102950000D01*
X100557142Y-102973809D01*
X100580952Y-103021428D01*
X100580952Y-103045238D01*
X100557142Y-103092857D01*
X100533333Y-103116666D01*
X100485714Y-103140476D01*
X100390476Y-103140476D01*
X100342857Y-103164285D01*
X100319047Y-103188095D01*
X100295238Y-103235714D01*
X100295238Y-103330952D01*
X100319047Y-103378571D01*
X100342857Y-103402380D01*
X100390476Y-103426190D01*
X100485714Y-103426190D01*
X100533333Y-103402380D01*
X100557142Y-103378571D01*
X100580952Y-103330952D01*
X100580952Y-103235714D01*
X100557142Y-103188095D01*
X100533333Y-103164285D01*
X100485714Y-103140476D01*
X100795238Y-103235714D02*
X101176190Y-103235714D01*
X101652380Y-102926190D02*
X101414285Y-102926190D01*
X101390476Y-103164285D01*
X101414285Y-103140476D01*
X101461904Y-103116666D01*
X101580952Y-103116666D01*
X101628571Y-103140476D01*
X101652380Y-103164285D01*
X101676190Y-103211904D01*
X101676190Y-103330952D01*
X101652380Y-103378571D01*
X101628571Y-103402380D01*
X101580952Y-103426190D01*
X101461904Y-103426190D01*
X101414285Y-103402380D01*
X101390476Y-103378571D01*
X101890476Y-103378571D02*
X101914285Y-103402380D01*
X101890476Y-103426190D01*
X101866666Y-103402380D01*
X101890476Y-103378571D01*
X101890476Y-103426190D01*
X102366666Y-102926190D02*
X102128571Y-102926190D01*
X102104761Y-103164285D01*
X102128571Y-103140476D01*
X102176190Y-103116666D01*
X102295238Y-103116666D01*
X102342857Y-103140476D01*
X102366666Y-103164285D01*
X102390476Y-103211904D01*
X102390476Y-103330952D01*
X102366666Y-103378571D01*
X102342857Y-103402380D01*
X102295238Y-103426190D01*
X102176190Y-103426190D01*
X102128571Y-103402380D01*
X102104761Y-103378571D01*
X102533333Y-102926190D02*
X102700000Y-103426190D01*
X102866666Y-102926190D01*
X96461904Y-95826190D02*
X96771428Y-95826190D01*
X96604761Y-96016666D01*
X96676190Y-96016666D01*
X96723809Y-96040476D01*
X96747619Y-96064285D01*
X96771428Y-96111904D01*
X96771428Y-96230952D01*
X96747619Y-96278571D01*
X96723809Y-96302380D01*
X96676190Y-96326190D01*
X96533333Y-96326190D01*
X96485714Y-96302380D01*
X96461904Y-96278571D01*
X96985714Y-96278571D02*
X97009523Y-96302380D01*
X96985714Y-96326190D01*
X96961904Y-96302380D01*
X96985714Y-96278571D01*
X96985714Y-96326190D01*
X97176190Y-95826190D02*
X97485714Y-95826190D01*
X97319047Y-96016666D01*
X97390476Y-96016666D01*
X97438095Y-96040476D01*
X97461904Y-96064285D01*
X97485714Y-96111904D01*
X97485714Y-96230952D01*
X97461904Y-96278571D01*
X97438095Y-96302380D01*
X97390476Y-96326190D01*
X97247619Y-96326190D01*
X97200000Y-96302380D01*
X97176190Y-96278571D01*
X97628571Y-95826190D02*
X97795238Y-96326190D01*
X97961904Y-95826190D01*
X97295238Y-102526190D02*
X97247619Y-102502380D01*
X97223809Y-102478571D01*
X97200000Y-102430952D01*
X97200000Y-102288095D01*
X97223809Y-102240476D01*
X97247619Y-102216666D01*
X97295238Y-102192857D01*
X97366666Y-102192857D01*
X97414285Y-102216666D01*
X97438095Y-102240476D01*
X97461904Y-102288095D01*
X97461904Y-102430952D01*
X97438095Y-102478571D01*
X97414285Y-102502380D01*
X97366666Y-102526190D01*
X97295238Y-102526190D01*
X97890476Y-102192857D02*
X97890476Y-102526190D01*
X97676190Y-102192857D02*
X97676190Y-102454761D01*
X97700000Y-102502380D01*
X97747619Y-102526190D01*
X97819047Y-102526190D01*
X97866666Y-102502380D01*
X97890476Y-102478571D01*
X98057142Y-102192857D02*
X98247619Y-102192857D01*
X98128571Y-102026190D02*
X98128571Y-102454761D01*
X98152380Y-102502380D01*
X98200000Y-102526190D01*
X98247619Y-102526190D01*
X97273809Y-97426190D02*
X97273809Y-97092857D01*
X97273809Y-96926190D02*
X97250000Y-96950000D01*
X97273809Y-96973809D01*
X97297619Y-96950000D01*
X97273809Y-96926190D01*
X97273809Y-96973809D01*
X97511904Y-97092857D02*
X97511904Y-97426190D01*
X97511904Y-97140476D02*
X97535714Y-97116666D01*
X97583333Y-97092857D01*
X97654761Y-97092857D01*
X97702380Y-97116666D01*
X97726190Y-97164285D01*
X97726190Y-97426190D01*
X101045238Y-96102380D02*
X100997619Y-96126190D01*
X100902380Y-96126190D01*
X100854761Y-96102380D01*
X100830952Y-96078571D01*
X100807142Y-96030952D01*
X100807142Y-95888095D01*
X100830952Y-95840476D01*
X100854761Y-95816666D01*
X100902380Y-95792857D01*
X100997619Y-95792857D01*
X101045238Y-95816666D01*
X101330952Y-96126190D02*
X101283333Y-96102380D01*
X101259523Y-96054761D01*
X101259523Y-95626190D01*
X101592857Y-96126190D02*
X101545238Y-96102380D01*
X101521428Y-96078571D01*
X101497619Y-96030952D01*
X101497619Y-95888095D01*
X101521428Y-95840476D01*
X101545238Y-95816666D01*
X101592857Y-95792857D01*
X101664285Y-95792857D01*
X101711904Y-95816666D01*
X101735714Y-95840476D01*
X101759523Y-95888095D01*
X101759523Y-96030952D01*
X101735714Y-96078571D01*
X101711904Y-96102380D01*
X101664285Y-96126190D01*
X101592857Y-96126190D01*
X102188095Y-96102380D02*
X102140476Y-96126190D01*
X102045238Y-96126190D01*
X101997619Y-96102380D01*
X101973809Y-96078571D01*
X101950000Y-96030952D01*
X101950000Y-95888095D01*
X101973809Y-95840476D01*
X101997619Y-95816666D01*
X102045238Y-95792857D01*
X102140476Y-95792857D01*
X102188095Y-95816666D01*
X102402380Y-96126190D02*
X102402380Y-95626190D01*
X102450000Y-95935714D02*
X102592857Y-96126190D01*
X102592857Y-95792857D02*
X102402380Y-95983333D01*
X98811904Y-96126190D02*
X98811904Y-95626190D01*
X98811904Y-96102380D02*
X98764285Y-96126190D01*
X98669047Y-96126190D01*
X98621428Y-96102380D01*
X98597619Y-96078571D01*
X98573809Y-96030952D01*
X98573809Y-95888095D01*
X98597619Y-95840476D01*
X98621428Y-95816666D01*
X98669047Y-95792857D01*
X98764285Y-95792857D01*
X98811904Y-95816666D01*
X99264285Y-96126190D02*
X99264285Y-95864285D01*
X99240476Y-95816666D01*
X99192857Y-95792857D01*
X99097619Y-95792857D01*
X99050000Y-95816666D01*
X99264285Y-96102380D02*
X99216666Y-96126190D01*
X99097619Y-96126190D01*
X99050000Y-96102380D01*
X99026190Y-96054761D01*
X99026190Y-96007142D01*
X99050000Y-95959523D01*
X99097619Y-95935714D01*
X99216666Y-95935714D01*
X99264285Y-95911904D01*
X99430952Y-95792857D02*
X99621428Y-95792857D01*
X99502380Y-95626190D02*
X99502380Y-96054761D01*
X99526190Y-96102380D01*
X99573809Y-96126190D01*
X99621428Y-96126190D01*
X100002380Y-96126190D02*
X100002380Y-95864285D01*
X99978571Y-95816666D01*
X99930952Y-95792857D01*
X99835714Y-95792857D01*
X99788095Y-95816666D01*
X100002380Y-96102380D02*
X99954761Y-96126190D01*
X99835714Y-96126190D01*
X99788095Y-96102380D01*
X99764285Y-96054761D01*
X99764285Y-96007142D01*
X99788095Y-95959523D01*
X99835714Y-95935714D01*
X99954761Y-95935714D01*
X100002380Y-95911904D01*
X106233333Y-95626190D02*
X106400000Y-96126190D01*
X106566666Y-95626190D01*
X107019047Y-96078571D02*
X106995238Y-96102380D01*
X106923809Y-96126190D01*
X106876190Y-96126190D01*
X106804761Y-96102380D01*
X106757142Y-96054761D01*
X106733333Y-96007142D01*
X106709523Y-95911904D01*
X106709523Y-95840476D01*
X106733333Y-95745238D01*
X106757142Y-95697619D01*
X106804761Y-95650000D01*
X106876190Y-95626190D01*
X106923809Y-95626190D01*
X106995238Y-95650000D01*
X107019047Y-95673809D01*
X107519047Y-96078571D02*
X107495238Y-96102380D01*
X107423809Y-96126190D01*
X107376190Y-96126190D01*
X107304761Y-96102380D01*
X107257142Y-96054761D01*
X107233333Y-96007142D01*
X107209523Y-95911904D01*
X107209523Y-95840476D01*
X107233333Y-95745238D01*
X107257142Y-95697619D01*
X107304761Y-95650000D01*
X107376190Y-95626190D01*
X107423809Y-95626190D01*
X107495238Y-95650000D01*
X107519047Y-95673809D01*
X104019047Y-95650000D02*
X103971428Y-95626190D01*
X103900000Y-95626190D01*
X103828571Y-95650000D01*
X103780952Y-95697619D01*
X103757142Y-95745238D01*
X103733333Y-95840476D01*
X103733333Y-95911904D01*
X103757142Y-96007142D01*
X103780952Y-96054761D01*
X103828571Y-96102380D01*
X103900000Y-96126190D01*
X103947619Y-96126190D01*
X104019047Y-96102380D01*
X104042857Y-96078571D01*
X104042857Y-95911904D01*
X103947619Y-95911904D01*
X104257142Y-96126190D02*
X104257142Y-95626190D01*
X104542857Y-96126190D01*
X104542857Y-95626190D01*
X104780952Y-96126190D02*
X104780952Y-95626190D01*
X104900000Y-95626190D01*
X104971428Y-95650000D01*
X105019047Y-95697619D01*
X105042857Y-95745238D01*
X105066666Y-95840476D01*
X105066666Y-95911904D01*
X105042857Y-96007142D01*
X105019047Y-96054761D01*
X104971428Y-96102380D01*
X104900000Y-96126190D01*
X104780952Y-96126190D01*
X103419047Y-103950000D02*
X103371428Y-103926190D01*
X103300000Y-103926190D01*
X103228571Y-103950000D01*
X103180952Y-103997619D01*
X103157142Y-104045238D01*
X103133333Y-104140476D01*
X103133333Y-104211904D01*
X103157142Y-104307142D01*
X103180952Y-104354761D01*
X103228571Y-104402380D01*
X103300000Y-104426190D01*
X103347619Y-104426190D01*
X103419047Y-104402380D01*
X103442857Y-104378571D01*
X103442857Y-104211904D01*
X103347619Y-104211904D01*
X103657142Y-104426190D02*
X103657142Y-103926190D01*
X103942857Y-104426190D01*
X103942857Y-103926190D01*
X104180952Y-104426190D02*
X104180952Y-103926190D01*
X104300000Y-103926190D01*
X104371428Y-103950000D01*
X104419047Y-103997619D01*
X104442857Y-104045238D01*
X104466666Y-104140476D01*
X104466666Y-104211904D01*
X104442857Y-104307142D01*
X104419047Y-104354761D01*
X104371428Y-104402380D01*
X104300000Y-104426190D01*
X104180952Y-104426190D01*
X105964285Y-103826190D02*
X106130952Y-104326190D01*
X106297619Y-103826190D01*
X106750000Y-104278571D02*
X106726190Y-104302380D01*
X106654761Y-104326190D01*
X106607142Y-104326190D01*
X106535714Y-104302380D01*
X106488095Y-104254761D01*
X106464285Y-104207142D01*
X106440476Y-104111904D01*
X106440476Y-104040476D01*
X106464285Y-103945238D01*
X106488095Y-103897619D01*
X106535714Y-103850000D01*
X106607142Y-103826190D01*
X106654761Y-103826190D01*
X106726190Y-103850000D01*
X106750000Y-103873809D01*
X107250000Y-104278571D02*
X107226190Y-104302380D01*
X107154761Y-104326190D01*
X107107142Y-104326190D01*
X107035714Y-104302380D01*
X106988095Y-104254761D01*
X106964285Y-104207142D01*
X106940476Y-104111904D01*
X106940476Y-104040476D01*
X106964285Y-103945238D01*
X106988095Y-103897619D01*
X107035714Y-103850000D01*
X107107142Y-103826190D01*
X107154761Y-103826190D01*
X107226190Y-103850000D01*
X107250000Y-103873809D01*
X107345238Y-104373809D02*
X107726190Y-104373809D01*
X108083333Y-104326190D02*
X107845238Y-104326190D01*
X107845238Y-103826190D01*
X108250000Y-104064285D02*
X108416666Y-104064285D01*
X108488095Y-104326190D02*
X108250000Y-104326190D01*
X108250000Y-103826190D01*
X108488095Y-103826190D01*
X108702380Y-104326190D02*
X108702380Y-103826190D01*
X108821428Y-103826190D01*
X108892857Y-103850000D01*
X108940476Y-103897619D01*
X108964285Y-103945238D01*
X108988095Y-104040476D01*
X108988095Y-104111904D01*
X108964285Y-104207142D01*
X108940476Y-104254761D01*
X108892857Y-104302380D01*
X108821428Y-104326190D01*
X108702380Y-104326190D01*
D11*
X73028733Y-102490000D02*
X73371267Y-102490000D01*
X73028733Y-103510000D02*
X73371267Y-103510000D01*
X120000000Y-103510000D02*
X122200000Y-103510000D01*
X120000000Y-103510000D02*
X117800000Y-103510000D01*
X120000000Y-96490000D02*
X122200000Y-96490000D01*
X120000000Y-96490000D02*
X116350000Y-96490000D01*
X80000000Y-103510000D02*
X82200000Y-103510000D01*
X80000000Y-103510000D02*
X77800000Y-103510000D01*
X80000000Y-96490000D02*
X82200000Y-96490000D01*
X80000000Y-96490000D02*
X76350000Y-96490000D01*
X114329919Y-97510000D02*
X113987385Y-97510000D01*
X114329919Y-96490000D02*
X113987385Y-96490000D01*
X74370268Y-97510000D02*
X74027734Y-97510000D01*
X74370268Y-96490000D02*
X74027734Y-96490000D01*
X103115000Y-101210000D02*
X103115000Y-103870000D01*
X105715000Y-101210000D02*
X103115000Y-101210000D01*
X105715000Y-103870000D02*
X103115000Y-103870000D01*
X105715000Y-101210000D02*
X105715000Y-103870000D01*
X106985000Y-101210000D02*
X108315000Y-101210000D01*
X108315000Y-101210000D02*
X108315000Y-102540000D01*
X108315000Y-101330000D02*
X108315000Y-98670000D01*
X100635000Y-101330000D02*
X108315000Y-101330000D01*
X100635000Y-98670000D02*
X108315000Y-98670000D01*
X100635000Y-101330000D02*
X100635000Y-98670000D01*
X99365000Y-101330000D02*
X98035000Y-101330000D01*
X98035000Y-101330000D02*
X98035000Y-100000000D01*
X108315000Y-98790000D02*
X108315000Y-96130000D01*
X100635000Y-98790000D02*
X108315000Y-98790000D01*
X100635000Y-96130000D02*
X108315000Y-96130000D01*
X100635000Y-98790000D02*
X100635000Y-96130000D01*
X99365000Y-98790000D02*
X98035000Y-98790000D01*
X98035000Y-98790000D02*
X98035000Y-97460000D01*
X125528733Y-96490000D02*
X125871267Y-96490000D01*
X125528733Y-97510000D02*
X125871267Y-97510000D01*
X126671267Y-103510000D02*
X126328733Y-103510000D01*
X126671267Y-102490000D02*
X126328733Y-102490000D01*
X85578733Y-96490000D02*
X85921267Y-96490000D01*
X85578733Y-97510000D02*
X85921267Y-97510000D01*
M02*
